<?xml version="1.0" encoding="UTF-8"?>
<svg id="Layer_1" data-name="Layer 1" xmlns="http://www.w3.org/2000/svg" viewBox="0 0 70.54 70.54">
  <defs>
    <style>
      .cls-1 {
        fill: #231f20;
      }

      .cls-1, .cls-2 {
        stroke-width: 0px;
      }

      .cls-2 {
        fill: #f8c34e;
      }

      .cls-3 {
        fill: #f1f9fd;
        stroke: #fff;
        stroke-miterlimit: 10;
        stroke-width: 2px;
      }
    </style>
  </defs>
  <rect class="cls-3" x="1" y="1" width="68.54" height="68.54" rx="20.06" ry="20.06"/>
  <g id="Layer_1_copy" data-name="Layer 1 copy">
    <path class="cls-1" d="m37.73,48.71c-1.38,1.18-2.93,2.11-4.67,2.77s-3.57,1-5.51,1c-2.29,0-4.43-.45-6.43-1.36s-3.76-2.15-5.28-3.74-2.71-3.44-3.56-5.56c-.86-2.11-1.28-4.37-1.28-6.77s.43-4.65,1.28-6.76c.86-2.1,2.04-3.96,3.56-5.56,1.52-1.6,3.28-2.85,5.28-3.76s4.14-1.36,6.43-1.36,4.43.45,6.42,1.36c1.99.9,3.75,2.16,5.27,3.76s2.71,3.45,3.56,5.56c.86,2.1,1.28,4.36,1.28,6.76,0,2.05-.32,3.98-.95,5.81-.63,1.82-1.51,3.48-2.63,4.97m-3-3c.83-1.1,1.46-2.32,1.9-3.66.43-1.34.65-2.71.65-4.12,0-1.84-.32-3.57-.97-5.18-.65-1.62-1.55-3.04-2.7-4.27s-2.48-2.2-4-2.89c-1.51-.7-3.12-1.04-4.84-1.04s-3.37.36-4.88,1.07c-1.51.71-2.84,1.69-3.98,2.93s-2.04,2.66-2.69,4.27-.97,3.32-.97,5.12.33,3.57.98,5.18c.66,1.62,1.56,3.04,2.71,4.28,1.15,1.24,2.48,2.2,4,2.89,1.51.69,3.12,1.03,4.84,1.03,1.31,0,2.6-.23,3.86-.68,1.26-.46,2.39-1.12,3.38-1.98"/>
    <polygon class="cls-2" points="31.73 38.76 28.88 41.64 40.2 52.94 62.79 31.4 59.86 28.77 40.54 47.37 31.73 38.76"/>
  </g>
</svg>